# xmcd CD database file
#
# Track frame offsets:
#	150
#	34002
#	54852
#	77680
#	103835
#	145187
#	166295
#	190852
#
# Disc length: 2903 seconds
#
# Revision: 0
# Processed by: cddbd v1.5.1PL2 Copyright (c) Steve Scherf et al.
# Submitted via: CDex 1.51
#
DISCID=5f0b5508
DTITLE=さだまさし - 書簡集 第七信
DYEAR=1984
DGENRE=Folk
TTITLE0=あなたが好きです
TTITLE1=桃花源
TTITLE2=晩鐘
TTITLE3=セロ弾きのゴーシュ
TTITLE4=虫くだしのララバイ
TTITLE5=人買
TTITLE6=片おしどり
TTITLE7=ひき潮
EXTD=YEAR: 1984
EXTT0=
EXTT1=
EXTT2=
EXTT3=
EXTT4=
EXTT5=
EXTT6=
EXTT7=
PLAYORDER=
